HIERARCHY
ROOT Hips
{
  OFFSET 0 0 0
  CHANNELS 6 Xposition Yposition Zposition Zrotation Yrotation Xrotation
  JOINT LeftThigh
  {
    OFFSET 8.409438 0 -5.917753
    CHANNELS 3 Zrotation Yrotation Xrotation
    JOINT LeftLeg
    {
      OFFSET 0 0 -42.358652
      CHANNELS 3 Zrotation Yrotation Xrotation
      JOINT LeftFoot
      {
        OFFSET 0 0 -39.357303
        CHANNELS 3 Zrotation Yrotation Xrotation
      }
    }
  }
  JOINT RightThigh
  {
    OFFSET -8.409438 0 -5.917753
    CHANNELS 3 Zrotation Yrotation Xrotation
    JOINT RightLeg
    {
      OFFSET 0 0 -42.358652
      CHANNELS 3 Zrotation Yrotation Xrotation
      JOINT RightFoot
      {
        OFFSET 0 0 -39.357303
        CHANNELS 3 Zrotation Yrotation Xrotation
      }
    }
  }
  JOINT SpineLow
  {
    OFFSET 0 0 4.719101
    CHANNELS 3 Zrotation Yrotation Xrotation
    JOINT SpineMid
    {
      OFFSET 0 0 12.899191
      CHANNELS 3 Zrotation Yrotation Xrotation
      JOINT Chest
      {
        OFFSET 0 0 12.899191
        CHANNELS 3 Zrotation Yrotation Xrotation
        JOINT LeftShoulder
        {
          OFFSET 7.550562 1.41573 9.438202
          CHANNELS 3 Zrotation Yrotation Xrotation
          JOINT LeftArm
          {
            OFFSET 9.155056 0 4.247191
            CHANNELS 3 Zrotation Yrotation Xrotation
            JOINT LeftForearm
            {
              OFFSET 0 0 25.771955
              CHANNELS 3 Zrotation Yrotation Xrotation
              JOINT LeftHand
              {
                OFFSET 0 0 25.197169
                CHANNELS 3 Zrotation Yrotation Xrotation
              }
            }
          }
        }
        JOINT RightShoulder
        {
          OFFSET -7.550562 1.41573 9.438202
          CHANNELS 3 Zrotation Yrotation Xrotation
          JOINT RightArm
          {
            OFFSET -9.155056 0 4.247191
            CHANNELS 3 Zrotation Yrotation Xrotation
            JOINT RightForearm
            {
              OFFSET 0 0 -25.771955
              CHANNELS 3 Zrotation Yrotation Xrotation
              JOINT RightHand
              {
                OFFSET 0 0 -25.197169
                CHANNELS 3 Zrotation Yrotation Xrotation
              }
            }
          }
        }
        JOINT Neck
        {
          OFFSET 0 0 15.101124
          CHANNELS 3 Zrotation Yrotation Xrotation
          JOINT Head
          {
            OFFSET 0 0 11.325843
            CHANNELS 3 Zrotation Yrotation Xrotation
            End Site
            {
              OFFSET 0 0 14.157303
            }
          }
        }
      }
    }
  }
}
MOTION
Frames: 7
Frame Time: 0.0
0.0  101.685394  0.0  -2.302848  -18.870752  -101.457655  49.079453  -19.173291  -23.584019  -23.918519  16.866814  36.501609  -2.701184  0.536067  1.338273  -5.663545  2.429532  23.911509  0.168605  9.264531  8.508503  8.878723  10.73205  0.586236  -0.465134  -1.101876  2.833305  -1.399286  -2.952504  7.770209  -1.399286  -2.952504  7.770209  -8.024851  26.214944  -1.751698  179.858043  65.222183  -137.013543  -40.860253  -29.985799  85.79766  26.619088  -38.603722  28.961858  -2.315155  -2.198603  15.369338  97.812856  33.810718  33.620119  -22.804449  37.766525  -107.859173  82.641801  -2.413133  41.395141  6.968552  -1.033886  -2.20498  5.222624  -0.800693  -1.642152  
0.0  101.685394  0.0  -2.080566  -19.028318  -101.503716  49.254562  -19.227164  -23.320645  -23.656924  16.951122  36.079169  -2.49822  0.494732  1.545393  -6.573015  3.307553  23.903997  1.06166  9.044439  8.199001  9.13093  10.765187  0.612811  -0.441564  -1.081297  2.81733  -1.331788  -2.899463  7.724931  -1.331788  -2.899463  7.72493  -7.806494  26.002258  -1.76157  177.926398  64.471282  -139.002318  -41.142618  -30.251766  86.120146  27.264001  -38.568642  28.633971  -2.257894  -2.346677  15.250925  97.702388  35.032327  33.592797  -23.370368  37.176671  -108.443569  83.129595  -2.737587  40.843176  6.979502  -0.952284  -2.219831  5.23113  -0.739691  -1.654214  
0.0  101.685394  0.0  -1.864097  -19.24069  -101.469672  49.323036  -19.235494  -23.150629  -23.757621  17.322964  35.35056  -1.905465  0.494902  1.941655  -7.451849  4.095985  23.695028  1.945676  8.826997  8.087254  9.148238  10.748637  0.516755  -0.422172  -1.062056  2.793014  -1.275527  -2.849724  7.657092  -1.275527  -2.849724  7.657091  -7.913952  25.658568  -1.906964  176.668448  63.458352  -140.792627  -41.419072  -30.511202  86.593231  28.19083  -38.61446  27.989641  -2.305594  -2.593151  14.981211  97.78055  36.2111  33.663579  -23.915081  36.560983  -109.026549  83.67264  -2.922605  40.164096  7.044153  -0.841302  -2.326065  5.279909  -0.657903  -1.735092  
0.0  101.685394  0.0  -1.622207  -19.514896  -101.488121  49.414128  -19.319621  -22.950439  -23.372954  17.5444  35.026575  -1.602375  0.43525  2.198826  -7.756537  4.648755  23.616089  2.417407  8.687491  7.848022  9.351319  10.775363  0.541322  -0.366708  -1.038789  2.792461  -1.121328  -2.792666  7.652678  -1.121328  -2.792666  7.652678  -7.705513  25.414941  -1.944691  174.808559  62.583914  -142.612162  -41.73783  -30.754467  87.012183  29.243647  -38.669947  27.183043  -2.222826  -2.758283  14.822216  97.449678  37.748203  33.497617  -24.348729  35.817624  -109.605536  84.222077  -2.982884  39.429538  7.054408  -0.746039  -2.524497  5.287757  -0.588775  -1.885032  
0.0  101.685394  0.0  -1.414919  -19.761821  -101.450603  49.289752  -19.373841  -22.856703  -22.897003  17.765675  34.80572  -1.558339  0.407839  2.325324  -8.08396  5.046657  23.393143  2.742521  8.626162  7.817015  9.463872  10.769959  0.446496  -0.326309  -1.020445  2.78163  -1.008428  -2.74746  7.620979  -1.008428  -2.74746  7.620979  -7.602491  25.09631  -1.945099  173.492287  61.51649  -144.221344  -42.02353  -30.765782  87.61124  30.419517  -38.630671  26.237673  -2.205289  -2.972246  14.577513  97.25131  39.260085  33.409143  -24.620233  34.875514  -110.160214  84.752011  -2.956369  38.724167  7.041626  -0.651912  -2.781757  5.278326  -0.521082  -2.079111  
0.0  101.685394  0.0  -1.240219  -19.846028  -101.43273  49.017822  -19.481263  -22.757547  -22.437911  17.974505  34.689876  -1.485846  0.468962  2.462183  -8.09962  5.256702  23.320417  2.81515  8.591689  7.605995  9.640258  10.730814  0.514116  -0.27126  -1.006458  2.793059  -0.856949  -2.715475  7.649707  -0.856949  -2.715475  7.649707  -7.579026  24.815598  -1.955219  171.841974  60.605368  -145.869361  -42.394121  -30.63308  88.138679  31.557987  -38.46472  25.349348  -2.207301  -3.17005  14.332463  96.816583  40.978039  33.212454  -24.730733  33.745288  -110.665546  85.199581  -2.865761  38.097701  6.96846  -0.58271  -3.053642  5.223544  -0.47194  -2.28392  
0.0  101.685394  0.0  -0.992441  -20.283527  -101.67824  48.862474  -19.703418  -22.532808  -22.976703  18.631608  33.838089  -0.631896  0.765654  2.952277  -7.615522  5.391993  23.452797  2.829814  8.604366  7.48584  9.741477  10.685692  0.557618  -0.216615  -0.993308  2.820721  -0.707323  -2.685579  7.722913  -0.707323  -2.685579  7.722914  -7.167095  24.654952  -1.733278  170.42573  59.628555  -147.439844  -42.767546  -30.228837  88.79727  32.625884  -38.166692  24.583399  -1.904652  -3.305039  14.175953  96.392154  42.670592  33.04573  -25.637539  32.310057  -111.148995  85.453493  -2.355204  36.78744  7.049937  -0.483013  -3.226259  5.285047  -0.399555  -2.414489  
